<?xml version="1.0" encoding="utf-8"?>
<!-- Generator: Adobe Illustrator 27.0.0, SVG Export Plug-In . SVG Version: 6.00 Build 0)  -->
<svg version="1.1" id="Layer_1" xmlns="http://www.w3.org/2000/svg" xmlns:xlink="http://www.w3.org/1999/xlink" x="0px" y="0px"
	 viewBox="0 0 238.1 111.3" style="enable-background:new 0 0 238.1 111.3;" xml:space="preserve">
<style type="text/css">
	.st0{display:none;fill:#010101;}
	.st1{fill:#FFFFFF;}
</style>
<polygon class="st0" points="338.4,74.5 292.7,28.8 248.8,-15 215.6,18.2 215.3,18.5 259.1,62.4 259.4,62.1 271.9,74.5 -12.9,74.5 
	-12.9,121.5 318.9,121.5 385.4,121.5 "/>
<path class="st1" d="M230.6,102.1H9.8c-3,0-5.5-2.5-5.5-5.5s2.5-5.5,5.5-5.5h209.3l-51-63.5c-1.9-2.4-1.5-5.8,0.8-7.7
	c2.4-1.9,5.8-1.5,7.7,0.8l58.2,72.4c1.3,1.6,1.6,3.9,0.7,5.8C234.6,100.9,232.7,102.1,230.6,102.1z"/>
</svg>
