<?xml version="1.0" encoding="utf-8"?>
<!-- Generator: Adobe Illustrator 27.0.0, SVG Export Plug-In . SVG Version: 6.00 Build 0)  -->
<svg version="1.1" id="Layer_1" xmlns="http://www.w3.org/2000/svg" xmlns:xlink="http://www.w3.org/1999/xlink" x="0px" y="0px"
	 viewBox="0 0 238.1 111.3" style="enable-background:new 0 0 238.1 111.3;" xml:space="preserve">
<style type="text/css">
	.st0{display:none;fill:#010101;}
</style>
<polygon class="st0" points="338.4,74.5 292.7,28.8 248.8,-15 215.6,18.2 215.3,18.5 259.1,62.4 259.4,62.1 271.9,74.5 -12.9,74.5 
	-12.9,121.5 318.9,121.5 385.4,121.5 "/>
<path d="M9.8,102.1h220.8c3,0,5.5-2.5,5.5-5.5s-2.5-5.5-5.5-5.5H21.3l51-63.5c1.9-2.4,1.5-5.8-0.8-7.7c-2.4-1.9-5.8-1.5-7.7,0.8
	L5.5,93.1c-1.3,1.6-1.6,3.9-0.7,5.8C5.7,100.9,7.7,102.1,9.8,102.1z"/>
</svg>
