<?xml version="1.0" encoding="UTF-8"?>
<svg id="_레이어_1" data-name=" 레이어 1" xmlns="http://www.w3.org/2000/svg" viewBox="0 0 173.82 23.84">
  <defs>
    <style>
      .cls-1 {
        fill: #fff;
      }
    </style>
  </defs>
  <polygon class="cls-1" points="16.1 2.08 20.45 2.08 20.5 2.08 20.5 2.13 20.5 10.65 22.66 10.65 22.66 2.13 22.66 2.08 22.71 2.08 27.07 2.08 27.07 .41 16.1 .41 16.1 2.08"/>
  <path class="cls-1" d="M7.55,6.38h-3.46l.03-.07,1.65-3.68,.05-.1,.05,.1,1.65,3.68s.03,.07,.03,.07ZM4.72,.41L0,10.65H2.18l1.15-2.57v-.03h4.97v.03l1.17,2.57h2.21L6.96,.41h-2.24Z"/>
  <polygon class="cls-1" points="39.03 10.65 41.1 10.65 41.11 10.65 44.65 .41 42.48 .41 40.11 7.68 40.06 7.83 40.01 7.68 37.65 .41 35.49 .41 33.12 7.68 33.07 7.83 33.02 7.68 30.66 .41 28.48 .41 32.02 10.65 32.04 10.65 34.11 10.65 34.12 10.65 36.52 3.62 36.57 3.48 36.62 3.62 39.01 10.65 39.03 10.65"/>
  <path class="cls-1" d="M51.4,1.82c1.84,0,3.8,1.51,3.8,3.75,0,.97-.39,1.89-1.11,2.58-.72,.71-1.68,1.1-2.69,1.1s-1.97-.39-2.69-1.1c-.71-.7-1.11-1.62-1.11-2.58,0-2.24,1.96-3.75,3.8-3.75m-4.16,7.72c1.11,.98,2.58,1.52,4.16,1.52s3.05-.54,4.16-1.52c1.15-1.02,1.78-2.43,1.78-3.97,0-1.41-.56-2.8-1.53-3.82-1.1-1.14-2.62-1.75-4.41-1.75-2.26,0-3.64,.95-4.41,1.75-.97,1.01-1.53,2.4-1.53,3.82,0,1.54,.63,2.95,1.78,3.97"/>
  <polygon class="cls-1" points="130.81 8.94 130.81 8.89 130.81 .41 128.74 .41 128.74 10.65 137.62 10.65 137.62 8.94 130.86 8.94 130.81 8.94"/>
  <polygon class="cls-1" points="108.05 8.98 101.53 8.98 101.48 8.98 101.48 8.93 101.48 6.11 101.48 6.06 101.53 6.06 107.66 6.06 107.66 4.39 101.53 4.39 101.48 4.39 101.48 4.33 101.48 2.1 101.48 2.05 101.53 2.05 107.86 2.05 107.86 .38 99.41 .38 99.41 10.65 108.05 10.65 108.05 8.98"/>
  <polygon class="cls-1" points="167.3 8.98 167.25 8.98 167.25 8.93 167.25 6.11 167.25 6.06 167.3 6.06 173.43 6.06 173.43 4.39 167.3 4.39 167.25 4.39 167.25 4.33 167.25 2.1 167.25 2.05 167.3 2.05 173.62 2.05 173.62 .38 165.18 .38 165.18 10.65 173.82 10.65 173.82 8.98 167.3 8.98"/>
  <g>
    <path class="cls-1" d="M158.05,9.25h-.03c-2.12-.01-3.92-1.71-3.94-3.7,0-.99,.37-1.91,1.06-2.6,.73-.73,1.73-1.13,2.82-1.13h.03c1.4,0,2.6,.51,3.67,1.54l1-1.58C161.22,.59,159.68,0,157.96,0,156.58,0,155.09,.54,153.97,1.44c-.92,.74-2.02,2.07-2.02,4.16,0,3.39,2.93,5.31,5.83,5.46,1.84,.1,3.56-.55,4.96-1.86l-1.07-1.55c-.88,1.03-2.2,1.61-3.62,1.61"/>
    <path class="cls-1" d="M118.53,2.11h3.88c.47,0,.93,.15,1.27,.42,.39,.32,.6,.77,.6,1.32,0,1.15-.94,1.75-1.87,1.75h-3.88s0-3.49,0-3.49Zm0,5.21h3.59c1.24,0,2.19-.21,2.89-.63,.94-.56,1.41-1.52,1.41-2.84s-.46-2.28-1.37-2.84c-.69-.42-1.65-.63-2.92-.63h-5.81V10.68h2.21v-3.36Z"/>
  </g>
  <polygon class="cls-1" points="94.52 3.53 94.54 3.5 94.57 3.5 94.61 3.5 94.66 3.5 94.66 3.55 94.66 10.65 96.73 10.65 96.73 .41 94.12 .41 90.88 5.89 90.84 5.96 90.79 5.89 87.54 .41 84.94 .41 84.94 10.65 87.01 10.65 87.01 3.55 87.01 3.5 87.06 3.5 87.1 3.5 87.13 3.5 87.15 3.53 90.27 8.65 91.4 8.65 94.52 3.53"/>
  <path class="cls-1" d="M64.18,9.34h-.13c-2.13-.04-3.89-1.42-4.19-1.67l-.78,1.77c1.44,.98,3.39,1.62,4.99,1.62,1.81,0,3.22-.45,4.05-1.31,.55-.57,.84-1.3,.82-2.12-.03-1.44-.94-2.31-2.86-2.73-.42-.09-1.13-.24-1.75-.37-.34-.07-.65-.13-.89-.18-.99-.21-1.95-.47-1.96-1.22,0-.66,.71-1.34,2.12-1.37h.13c1.79,0,3.4,.85,4.27,1.6l.84-1.66c-1.18-.83-2.64-1.7-4.97-1.7-1.42,0-2.87,.55-3.7,1.4-.55,.57-.83,1.25-.81,2.01,.06,2.18,2.52,2.77,5.26,3.23h.01c1.07,.18,2.18,.37,2.22,1.24,.01,.27-.09,.52-.31,.74-.45,.46-1.3,.72-2.36,.72"/>
  <path class="cls-1" d="M147.06,6.38h-3.46l.03-.07,1.65-3.68,.05-.1,.05,.1,1.65,3.68,.03,.07h0Zm-2.84-5.97l-4.72,10.24h2.18l1.15-2.57v-.03h4.97v.03l1.17,2.57h2.21L146.47,.41h-2.25Z"/>
  <g>
    <path class="cls-1" d="M79.43,8.15c-.72,.71-1.68,1.1-2.69,1.1s-1.97-.39-2.69-1.1c-.71-.7-1.11-1.62-1.11-2.58,0-2.24,1.96-3.75,3.8-3.75s3.8,1.51,3.8,3.75c0,.97-.39,1.89-1.11,2.58m1.72-6.4c-1.11-1.14-2.63-1.75-4.42-1.75-2.26,0-3.64,.95-4.41,1.75-.97,1.01-1.53,2.4-1.53,3.82,0,1.54,.63,2.95,1.78,3.97,1.11,.98,2.58,1.52,4.16,1.52s3.05-.54,4.16-1.52c1.15-1.02,1.78-2.43,1.78-3.97,0-1.41-.56-2.8-1.53-3.82"/>
    <path class="cls-1" d="M41.75,17.16c-1.97,0-3.39,1.4-3.39,3.34s1.43,3.34,3.39,3.34c1.11,0,2.1-.49,2.66-1.31l.04-.06-.94-.69h0l-.05,.06c-.39,.56-.99,.87-1.7,.87-1.27,0-2.16-.91-2.16-2.21s.89-2.21,2.16-2.21c.7,0,1.32,.32,1.7,.87l.04,.06,.97-.64h0l-.04-.07c-.51-.84-1.54-1.35-2.69-1.35"/>
    <path class="cls-1" d="M48.91,22.71c-1.27,0-2.16-.91-2.16-2.21s.89-2.21,2.16-2.21,2.16,.91,2.16,2.21-.89,2.21-2.16,2.21m0-5.55c-1.97,0-3.39,1.4-3.39,3.34s1.43,3.34,3.39,3.34,3.39-1.41,3.39-3.34-1.43-3.34-3.39-3.34"/>
  </g>
  <polygon class="cls-1" points="53.86 23.73 55.04 23.73 55.04 21.04 58.33 21.04 58.33 19.92 55.04 19.92 55.04 18.4 58.53 18.4 58.53 17.28 53.86 17.28 53.86 23.73"/>
  <polygon class="cls-1" points="60.08 23.73 61.26 23.73 61.26 21.04 64.55 21.04 64.55 19.92 61.26 19.92 61.26 18.4 64.76 18.4 64.76 17.28 60.08 17.28 60.08 23.73"/>
  <polygon class="cls-1" points="67.48 21.04 70.8 21.04 70.8 19.93 67.48 19.93 67.48 18.39 71.02 18.39 71.02 17.28 66.3 17.28 66.3 23.73 71.18 23.73 71.18 22.62 67.48 22.62 67.48 21.04"/>
  <polygon class="cls-1" points="73.98 21.04 77.29 21.04 77.29 19.93 73.98 19.93 73.98 18.39 77.52 18.39 77.52 17.28 72.8 17.28 72.8 23.73 77.68 23.73 77.68 22.62 73.98 22.62 73.98 21.04"/>
  <g>
    <path class="cls-1" d="M83.58,22.8c-.52,0-.87-.29-.87-.73,0-.41,.35-.75,.67-1l1.29,1.22c-.34,.36-.65,.51-1.09,.51m.05-4.58c.42,0,.65,.2,.65,.55,0,.32-.36,.63-.74,.91-.45-.44-.56-.6-.56-.86,0-.38,.24-.6,.65-.6m2.5,3.9l.12-.19,.83-1.3v-.02l-.88-.55h-.01l-.86,1.32-1.03-.99c.6-.45,1.16-.96,1.16-1.68,0-.93-.73-1.55-1.82-1.55s-1.83,.67-1.83,1.58c0,.64,.3,1.07,.82,1.59-.51,.4-1.09,.95-1.09,1.76,0,1.09,.74,1.74,1.99,1.74,.75,0,1.37-.27,1.92-.83l.75,.71h1.6l-1.66-1.59v0Z"/>
    <path class="cls-1" d="M93.34,22.61h-1.41v-4.21h1.41c1.36,0,2.14,.77,2.14,2.1s-.8,2.11-2.14,2.11m0-5.33h-2.59v6.45h2.59c2.01,0,3.37-1.3,3.37-3.23s-1.35-3.23-3.37-3.23"/>
  </g>
  <polygon class="cls-1" points="99.43 21.04 102.74 21.04 102.74 19.93 99.43 19.93 99.43 18.39 102.97 18.39 102.97 17.28 98.25 17.28 98.25 23.73 103.13 23.73 103.13 22.62 99.43 22.62 99.43 21.04"/>
  <g>
    <path class="cls-1" d="M107.53,19.97l-.44-.06c-.9-.13-1.25-.34-1.25-.76,0-.52,.53-.86,1.34-.86,.6,0,1.18,.18,1.73,.53l.07,.04,.59-.94h0l-.06-.06c-.7-.47-1.47-.69-2.33-.69-1.54,0-2.58,.82-2.58,2.04s1.06,1.69,1.95,1.82l.49,.07c.95,.13,1.36,.36,1.36,.77,0,.5-.58,.85-1.4,.85-.69,0-1.5-.28-1.93-.67l-.07-.06-.64,.93h0l.05,.06c.61,.53,1.63,.86,2.6,.86,1.81,0,2.62-1.03,2.62-2.06s-.71-1.62-2.11-1.81"/>
    <path class="cls-1" d="M113.98,19.97l-.44-.06c-.9-.13-1.25-.34-1.25-.76,0-.52,.53-.86,1.34-.86,.6,0,1.18,.18,1.73,.53l.07,.04,.59-.94h0l-.06-.06c-.7-.47-1.47-.69-2.33-.69-1.54,0-2.58,.82-2.58,2.04s1.06,1.69,1.95,1.82l.49,.07c.95,.13,1.36,.36,1.36,.77,0,.5-.58,.85-1.4,.85-.69,0-1.5-.28-1.93-.67l-.07-.06-.64,.93h0l.05,.06c.61,.53,1.63,.86,2.6,.86,1.81,0,2.62-1.03,2.62-2.06s-.71-1.62-2.11-1.81"/>
  </g>
  <polygon class="cls-1" points="118.82 21.04 122.13 21.04 122.13 19.93 118.82 19.93 118.82 18.39 122.35 18.39 122.35 17.28 117.64 17.28 117.64 23.73 122.52 23.73 122.52 22.62 118.82 22.62 118.82 21.04"/>
  <path class="cls-1" d="M125.31,20v-1.61h1.48c.77,0,1.13,.25,1.13,.79s-.36,.82-1.13,.82h-1.48Zm3.83-.82c0-1.23-.82-1.9-2.32-1.9h-2.68v6.45h1.18v-2.65h.97l1.67,2.64h1.36l-1.79-2.72c.99-.22,1.61-.9,1.61-1.83"/>
  <polygon class="cls-1" points="130.19 18.4 132.24 18.4 132.24 23.73 133.42 23.73 133.42 18.4 135.47 18.4 135.47 17.28 130.19 17.28 130.19 18.4"/>
</svg>