<?xml version="1.0" encoding="UTF-8"?>
<svg id="_레이어_1" data-name="레이어 1" xmlns="http://www.w3.org/2000/svg" viewBox="0 0 173.82 23.86">
  <defs>
    <style>
      .cls-1 {
        fill: #201a1a;
      }
    </style>
  </defs>
  <polygon class="cls-1" points="16.1 2.09 20.45 2.09 20.5 2.09 20.5 2.14 20.5 10.66 22.66 10.66 22.66 2.14 22.66 2.09 22.71 2.09 27.07 2.09 27.07 .42 16.1 .42 16.1 2.09"/>
  <path class="cls-1" d="M7.55,6.39h-3.46l.03-.07,1.65-3.68,.05-.1,.05,.1,1.65,3.68,.03,.07ZM4.72,.42L0,10.66H2.18l1.15-2.57v-.03h4.97v.03s1.17,2.57,1.17,2.57h2.21L6.96,.42h-2.24Z"/>
  <polygon class="cls-1" points="39.03 10.66 41.1 10.66 41.11 10.66 44.65 .42 42.48 .42 40.11 7.69 40.06 7.84 40.01 7.69 37.65 .42 35.49 .42 33.12 7.69 33.07 7.84 33.02 7.69 30.66 .42 28.48 .42 32.02 10.66 32.04 10.66 34.11 10.66 34.12 10.66 36.52 3.63 36.57 3.49 36.62 3.63 39.01 10.66 39.03 10.66"/>
  <path class="cls-1" d="M51.4,1.83c1.84,0,3.8,1.51,3.8,3.75,0,.97-.39,1.89-1.11,2.58-.72,.71-1.68,1.1-2.69,1.1s-1.97-.39-2.69-1.1c-.71-.7-1.11-1.62-1.11-2.58,0-2.24,1.96-3.75,3.8-3.75m-4.16,7.72c1.11,.98,2.58,1.52,4.16,1.52s3.05-.54,4.16-1.52c1.15-1.02,1.78-2.43,1.78-3.97,0-1.41-.56-2.8-1.53-3.82C54.71,.62,53.19,.01,51.4,.01c-2.26,0-3.64,.95-4.41,1.75-.97,1.01-1.53,2.4-1.53,3.82,0,1.54,.63,2.95,1.78,3.97"/>
  <polygon class="cls-1" points="130.81 8.95 130.81 8.9 130.81 .42 128.74 .42 128.74 10.66 137.62 10.66 137.62 8.95 130.86 8.95 130.81 8.95"/>
  <polygon class="cls-1" points="108.05 8.99 101.53 8.99 101.48 8.99 101.48 8.94 101.48 6.12 101.48 6.07 101.53 6.07 107.66 6.07 107.66 4.4 101.53 4.4 101.48 4.4 101.48 4.34 101.48 2.11 101.48 2.06 101.53 2.06 107.86 2.06 107.86 .39 99.41 .39 99.41 10.66 108.05 10.66 108.05 8.99"/>
  <polygon class="cls-1" points="167.3 8.99 167.25 8.99 167.25 8.94 167.25 6.12 167.25 6.07 167.3 6.07 173.43 6.07 173.43 4.4 167.3 4.4 167.25 4.4 167.25 4.34 167.25 2.11 167.25 2.06 167.3 2.06 173.62 2.06 173.62 .39 165.18 .39 165.18 10.66 173.82 10.66 173.82 8.99 167.3 8.99"/>
  <g>
    <path class="cls-1" d="M158.05,9.26h-.03c-2.12-.01-3.92-1.71-3.94-3.7,0-.99,.37-1.91,1.06-2.6,.73-.73,1.73-1.13,2.82-1.13h.03c1.4,.01,2.6,.51,3.67,1.54l1-1.58c-1.44-1.19-2.98-1.78-4.7-1.78-1.38,0-2.87,.54-3.99,1.44-.92,.74-2.02,2.07-2.02,4.16,0,3.39,2.93,5.31,5.83,5.46,1.84,.1,3.56-.55,4.96-1.86l-1.07-1.55c-.88,1.03-2.2,1.61-3.62,1.61"/>
    <path class="cls-1" d="M118.53,2.12h3.88c.47,0,.93,.15,1.27,.42,.39,.32,.6,.77,.6,1.32,0,1.15-.94,1.75-1.87,1.75h-3.88V2.12Zm0,5.21h3.59c1.24,0,2.19-.21,2.89-.63,.94-.56,1.41-1.52,1.41-2.84s-.46-2.28-1.37-2.84c-.69-.42-1.65-.63-2.92-.63h-5.81V10.69h2.21v-3.36Z"/>
  </g>
  <polygon class="cls-1" points="94.52 3.54 94.54 3.51 94.57 3.51 94.61 3.51 94.66 3.51 94.66 3.56 94.66 10.66 96.73 10.66 96.73 .42 94.12 .42 90.88 5.9 90.84 5.97 90.79 5.9 87.54 .42 84.94 .42 84.94 10.66 87.01 10.66 87.01 3.56 87.01 3.51 87.06 3.51 87.1 3.51 87.13 3.51 87.15 3.54 90.27 8.66 91.4 8.66 94.52 3.54"/>
  <path class="cls-1" d="M64.18,9.35h-.13c-2.13-.04-3.89-1.42-4.19-1.67l-.78,1.77c1.44,.98,3.39,1.62,4.99,1.62,1.81,0,3.22-.45,4.05-1.31,.55-.57,.84-1.3,.82-2.12-.03-1.44-.94-2.31-2.86-2.73-.42-.09-1.13-.24-1.75-.37-.34-.07-.65-.13-.89-.18-.99-.21-1.95-.47-1.96-1.22,0-.66,.71-1.34,2.12-1.37h.13c1.79,0,3.4,.85,4.27,1.6l.84-1.66C67.66,.88,66.2,.01,63.87,.01c-1.42,0-2.87,.55-3.7,1.4-.55,.57-.83,1.25-.81,2.01,.06,2.18,2.52,2.77,5.26,3.23h.01c1.07,.18,2.18,.37,2.22,1.24,.01,.27-.09,.52-.31,.74-.45,.46-1.3,.72-2.36,.72"/>
  <path class="cls-1" d="M147.06,6.39h-3.46l.03-.07,1.65-3.68,.05-.1,.05,.1,1.65,3.68,.03,.07Zm-2.84-5.97l-4.72,10.24h2.18l1.15-2.57v-.03h4.97v.03s1.17,2.57,1.17,2.57h2.21L146.47,.42h-2.24Z"/>
  <g>
    <path class="cls-1" d="M79.43,8.16c-.72,.71-1.68,1.1-2.69,1.1s-1.97-.39-2.69-1.1c-.71-.7-1.11-1.62-1.11-2.58,0-2.24,1.96-3.75,3.8-3.75s3.8,1.51,3.8,3.75c0,.97-.39,1.89-1.11,2.58m1.72-6.4C80.04,.62,78.52,.01,76.73,.01c-2.26,0-3.64,.95-4.41,1.75-.97,1.01-1.53,2.4-1.53,3.82,0,1.54,.63,2.95,1.78,3.97,1.11,.98,2.58,1.52,4.16,1.52s3.05-.54,4.16-1.52c1.15-1.02,1.78-2.43,1.78-3.97,0-1.41-.56-2.8-1.53-3.82"/>
    <path class="cls-1" d="M41.75,17.17c-1.97,0-3.39,1.4-3.39,3.34s1.43,3.34,3.39,3.34c1.11,0,2.1-.49,2.66-1.31l.04-.06-.94-.69h-.01s-.05,.06-.05,.06c-.39,.56-.99,.87-1.7,.87-1.27,0-2.16-.91-2.16-2.21s.89-2.21,2.16-2.21c.7,0,1.32,.32,1.7,.87l.04,.06,.97-.64h.01s-.04-.07-.04-.07c-.51-.84-1.54-1.35-2.69-1.35"/>
    <path class="cls-1" d="M48.91,22.72c-1.27,0-2.16-.91-2.16-2.21s.89-2.21,2.16-2.21,2.16,.91,2.16,2.21-.89,2.21-2.16,2.21m0-5.55c-1.97,0-3.39,1.4-3.39,3.34s1.43,3.34,3.39,3.34,3.39-1.41,3.39-3.34-1.43-3.34-3.39-3.34"/>
  </g>
  <polygon class="cls-1" points="53.86 23.74 55.04 23.74 55.04 21.05 58.33 21.05 58.33 19.93 55.04 19.93 55.04 18.41 58.53 18.41 58.53 17.29 53.86 17.29 53.86 23.74"/>
  <polygon class="cls-1" points="60.08 23.74 61.26 23.74 61.26 21.05 64.55 21.05 64.55 19.93 61.26 19.93 61.26 18.41 64.76 18.41 64.76 17.29 60.08 17.29 60.08 23.74"/>
  <polygon class="cls-1" points="67.48 21.05 70.8 21.05 70.8 19.94 67.48 19.94 67.48 18.4 71.02 18.4 71.02 17.29 66.3 17.29 66.3 23.74 71.18 23.74 71.18 22.63 67.48 22.63 67.48 21.05"/>
  <polygon class="cls-1" points="73.98 21.05 77.29 21.05 77.29 19.94 73.98 19.94 73.98 18.4 77.52 18.4 77.52 17.29 72.8 17.29 72.8 23.74 77.68 23.74 77.68 22.63 73.98 22.63 73.98 21.05"/>
  <g>
    <path class="cls-1" d="M83.58,22.81c-.52,0-.87-.29-.87-.73,0-.41,.35-.75,.67-1l1.29,1.22c-.34,.36-.65,.51-1.09,.51m.05-4.58c.42,0,.65,.2,.65,.55,0,.32-.36,.63-.74,.91-.45-.44-.56-.6-.56-.86,0-.38,.24-.6,.65-.6m2.5,3.9l.12-.19,.83-1.3v-.02s-.88-.55-.88-.55h-.01s-.86,1.32-.86,1.32l-1.03-.99c.6-.45,1.16-.96,1.16-1.68,0-.93-.73-1.55-1.82-1.55s-1.83,.67-1.83,1.58c0,.64,.3,1.07,.82,1.59-.51,.4-1.09,.95-1.09,1.76,0,1.09,.74,1.74,1.99,1.74,.75,0,1.37-.27,1.92-.83l.75,.71h0s1.6,0,1.6,0l-1.66-1.59v-.02Z"/>
    <path class="cls-1" d="M93.34,22.62h-1.41v-4.21h1.41c1.36,0,2.14,.77,2.14,2.1s-.8,2.11-2.14,2.11m0-5.33h-2.59v6.45h2.59c2.01,0,3.37-1.3,3.37-3.23s-1.35-3.23-3.37-3.23"/>
  </g>
  <polygon class="cls-1" points="99.43 21.05 102.74 21.05 102.74 19.94 99.43 19.94 99.43 18.4 102.97 18.4 102.97 17.29 98.25 17.29 98.25 23.74 103.13 23.74 103.13 22.63 99.43 22.63 99.43 21.05"/>
  <g>
    <path class="cls-1" d="M107.53,19.98l-.44-.06c-.9-.13-1.25-.34-1.25-.76,0-.52,.53-.86,1.34-.86,.6,0,1.18,.18,1.73,.53l.07,.04,.59-.94h0s-.06-.06-.06-.06c-.7-.47-1.47-.69-2.33-.69-1.54,0-2.58,.82-2.58,2.04s1.06,1.69,1.95,1.82l.49,.07c.95,.13,1.36,.36,1.36,.77,0,.5-.58,.85-1.4,.85-.69,0-1.5-.28-1.93-.67l-.07-.06-.64,.93h0s.05,.06,.05,.06c.61,.53,1.63,.86,2.6,.86,1.81,0,2.62-1.03,2.62-2.06s-.71-1.62-2.11-1.81"/>
    <path class="cls-1" d="M113.98,19.98l-.44-.06c-.9-.13-1.25-.34-1.25-.76,0-.52,.53-.86,1.34-.86,.6,0,1.18,.18,1.73,.53l.07,.04,.59-.94h0s-.06-.06-.06-.06c-.7-.47-1.47-.69-2.33-.69-1.54,0-2.58,.82-2.58,2.04s1.06,1.69,1.95,1.82l.49,.07c.95,.13,1.36,.36,1.36,.77,0,.5-.58,.85-1.4,.85-.69,0-1.5-.28-1.93-.67l-.07-.06-.64,.93h0s.05,.06,.05,.06c.61,.53,1.63,.86,2.6,.86,1.81,0,2.62-1.03,2.62-2.06s-.71-1.62-2.11-1.81"/>
  </g>
  <polygon class="cls-1" points="118.82 21.05 122.13 21.05 122.13 19.94 118.82 19.94 118.82 18.4 122.35 18.4 122.35 17.29 117.64 17.29 117.64 23.74 122.52 23.74 122.52 22.63 118.82 22.63 118.82 21.05"/>
  <path class="cls-1" d="M125.31,20.01v-1.61h1.48c.77,0,1.13,.25,1.13,.79s-.36,.82-1.13,.82h-1.48Zm3.83-.82c0-1.23-.82-1.9-2.32-1.9h-2.68v6.45h1.18v-2.65h.97l1.67,2.64h0s1.36,0,1.36,0l-1.79-2.72c.99-.22,1.61-.9,1.61-1.83"/>
  <polygon class="cls-1" points="130.19 18.41 132.24 18.41 132.24 23.74 133.42 23.74 133.42 18.41 135.47 18.41 135.47 17.29 130.19 17.29 130.19 18.41"/>
</svg>